<mxfile host="Electron" agent="Mozilla/5.0 (Windows NT 10.0; Win64; x64) AppleWebKit/537.36 (KHTML, like Gecko) draw.io/26.2.2 Chrome/134.0.6998.178 Electron/35.1.2 Safari/537.36" version="26.2.2">
  <diagram name="Page-1" id="K5S0VkBam-vqpc9kQYgU">
    <mxGraphModel dx="3435" dy="2601" grid="1" gridSize="10" guides="1" tooltips="1" connect="1" arrows="1" fold="1" page="1" pageScale="1" pageWidth="850" pageHeight="1100" math="0" shadow="0">
      <root>
        <mxCell id="0" />
        <mxCell id="1" parent="0" />
        <mxCell id="9MdFgHSnbLBtPDZreut7-9" value="&lt;pre style=&quot;font-family: &amp;quot;JetBrains Mono&amp;quot;, monospace; font-size: 12pt;&quot;&gt;Check&lt;/pre&gt;" style="text;html=1;align=center;verticalAlign=middle;resizable=0;points=[];autosize=1;strokeColor=none;fillColor=none;" parent="1" vertex="1">
          <mxGeometry x="-117.5" y="-250" width="70" height="60" as="geometry" />
        </mxCell>
        <mxCell id="9MdFgHSnbLBtPDZreut7-10" style="edgeStyle=orthogonalEdgeStyle;rounded=0;orthogonalLoop=1;jettySize=auto;html=1;exitX=0.5;exitY=1;exitDx=0;exitDy=0;exitPerimeter=0;entryX=0.5;entryY=0;entryDx=0;entryDy=0;" parent="1" source="9MdFgHSnbLBtPDZreut7-11" target="9MdFgHSnbLBtPDZreut7-12" edge="1">
          <mxGeometry relative="1" as="geometry" />
        </mxCell>
        <mxCell id="9MdFgHSnbLBtPDZreut7-11" value="begin" style="strokeWidth=2;html=1;shape=mxgraph.flowchart.terminator;whiteSpace=wrap;" parent="1" vertex="1">
          <mxGeometry x="-315" y="-170" width="120" height="60" as="geometry" />
        </mxCell>
        <mxCell id="n-QUUeFvLJD3XroxfAmB-52" style="edgeStyle=orthogonalEdgeStyle;rounded=0;orthogonalLoop=1;jettySize=auto;html=1;exitX=0.5;exitY=1;exitDx=0;exitDy=0;entryX=0.5;entryY=0;entryDx=0;entryDy=0;" edge="1" parent="1" source="9MdFgHSnbLBtPDZreut7-12" target="n-QUUeFvLJD3XroxfAmB-27">
          <mxGeometry relative="1" as="geometry" />
        </mxCell>
        <mxCell id="9MdFgHSnbLBtPDZreut7-12" value="&lt;div style=&quot;background-color: rgb(30, 30, 30); color: rgb(220, 220, 220);&quot;&gt;&lt;pre style=&quot;font-family:&#39;JetBrains Mono&#39;,monospace;font-size:12.0pt;&quot;&gt;&lt;pre style=&quot;font-family:&#39;JetBrains Mono&#39;,monospace;font-size:12.0pt;&quot;&gt;&lt;pre style=&quot;font-family:&#39;JetBrains Mono&#39;,monospace;font-size:12.0pt;&quot;&gt;&lt;pre style=&quot;font-family:&#39;JetBrains Mono&#39;,monospace;font-size:12.0pt;&quot;&gt;&lt;pre style=&quot;font-family:&#39;JetBrains Mono&#39;,monospace;font-size:12.0pt;&quot;&gt;&lt;pre style=&quot;font-family:&#39;JetBrains Mono&#39;,monospace;font-size:12.0pt;&quot;&gt;&lt;div&gt;&lt;pre style=&quot;font-family:&#39;JetBrains Mono&#39;,monospace;font-size:12.0pt;&quot;&gt;&lt;span style=&quot;color:#569cd6;&quot;&gt;bool &lt;/span&gt;&lt;span style=&quot;color:#9cdcfe;&quot;&gt;success &lt;/span&gt;= &lt;span style=&quot;color:#569cd6;&quot;&gt;false&lt;/span&gt;;&lt;/pre&gt;&lt;/div&gt;&lt;/pre&gt;&lt;/pre&gt;&lt;/pre&gt;&lt;/pre&gt;&lt;/pre&gt;&lt;/pre&gt;&lt;/div&gt;" style="rounded=1;whiteSpace=wrap;html=1;absoluteArcSize=1;arcSize=14;strokeWidth=2;" parent="1" vertex="1">
          <mxGeometry x="-640" y="-70" width="770" height="50" as="geometry" />
        </mxCell>
        <mxCell id="9MdFgHSnbLBtPDZreut7-13" value="&lt;pre style=&quot;font-family: &amp;quot;JetBrains Mono&amp;quot;, monospace; font-size: 12pt;&quot;&gt;input: string &lt;span style=&quot;font-size: 12pt; background-color: rgb(30, 30, 30); color: rgb(220, 220, 220); white-space-collapse: collapse;&quot;&gt;formula&lt;/span&gt;&lt;/pre&gt;" style="text;html=1;align=center;verticalAlign=middle;resizable=0;points=[];autosize=1;strokeColor=none;fillColor=none;" parent="1" vertex="1">
          <mxGeometry x="-117.5" y="-200" width="210" height="60" as="geometry" />
        </mxCell>
        <mxCell id="9MdFgHSnbLBtPDZreut7-14" value="&lt;pre style=&quot;font-family: &amp;quot;JetBrains Mono&amp;quot;, monospace; font-size: 12pt;&quot;&gt;output: bool &lt;span style=&quot;font-size: 12pt; background-color: rgb(30, 30, 30); color: rgb(220, 220, 220); white-space-collapse: collapse;&quot;&gt;success&lt;/span&gt;&lt;/pre&gt;" style="text;html=1;align=center;verticalAlign=middle;resizable=0;points=[];autosize=1;strokeColor=none;fillColor=none;" parent="1" vertex="1">
          <mxGeometry x="-117.5" y="-150" width="200" height="60" as="geometry" />
        </mxCell>
        <mxCell id="9MdFgHSnbLBtPDZreut7-15" value="end" style="strokeWidth=2;html=1;shape=mxgraph.flowchart.terminator;whiteSpace=wrap;" parent="1" vertex="1">
          <mxGeometry x="-590" y="920" width="120" height="60" as="geometry" />
        </mxCell>
        <mxCell id="n-QUUeFvLJD3XroxfAmB-27" value="&lt;div style=&quot;background-color: rgb(30, 30, 30); color: rgb(220, 220, 220);&quot;&gt;&lt;pre style=&quot;font-family:&#39;JetBrains Mono&#39;,monospace;font-size:12.0pt;&quot;&gt;&lt;pre style=&quot;font-family:&#39;JetBrains Mono&#39;,monospace;font-size:12.0pt;&quot;&gt;&lt;pre style=&quot;font-family:&#39;JetBrains Mono&#39;,monospace;font-size:12.0pt;&quot;&gt;&lt;pre style=&quot;font-family:&#39;JetBrains Mono&#39;,monospace;font-size:12.0pt;&quot;&gt;&lt;pre style=&quot;font-family:&#39;JetBrains Mono&#39;,monospace;font-size:12.0pt;&quot;&gt;&lt;pre style=&quot;font-family:&#39;JetBrains Mono&#39;,monospace;font-size:12.0pt;&quot;&gt;&lt;pre style=&quot;font-family:&#39;JetBrains Mono&#39;,monospace;font-size:12.0pt;&quot;&gt;&lt;div&gt;&lt;pre style=&quot;font-family:&#39;JetBrains Mono&#39;,monospace;font-size:12.0pt;&quot;&gt;&lt;span style=&quot;color:#b8d7a3;&quot;&gt;IEvaluatable &lt;/span&gt;&lt;span style=&quot;color:#9cdcfe;&quot;&gt;parsedFormula&lt;/span&gt;;&lt;/pre&gt;&lt;/div&gt;&lt;/pre&gt;&lt;/pre&gt;&lt;/pre&gt;&lt;/pre&gt;&lt;/pre&gt;&lt;/pre&gt;&lt;/pre&gt;&lt;/div&gt;" style="rounded=1;whiteSpace=wrap;html=1;absoluteArcSize=1;arcSize=14;strokeWidth=2;" vertex="1" parent="1">
          <mxGeometry x="-640" y="20" width="770" height="50" as="geometry" />
        </mxCell>
        <mxCell id="n-QUUeFvLJD3XroxfAmB-38" style="edgeStyle=orthogonalEdgeStyle;rounded=0;orthogonalLoop=1;jettySize=auto;html=1;exitX=0.5;exitY=1;exitDx=0;exitDy=0;exitPerimeter=0;" edge="1" parent="1" source="n-QUUeFvLJD3XroxfAmB-28">
          <mxGeometry relative="1" as="geometry">
            <mxPoint x="-255" y="340" as="targetPoint" />
          </mxGeometry>
        </mxCell>
        <mxCell id="n-QUUeFvLJD3XroxfAmB-39" value="no" style="edgeLabel;html=1;align=center;verticalAlign=middle;resizable=0;points=[];" vertex="1" connectable="0" parent="n-QUUeFvLJD3XroxfAmB-38">
          <mxGeometry x="0.0293" y="-2" relative="1" as="geometry">
            <mxPoint as="offset" />
          </mxGeometry>
        </mxCell>
        <mxCell id="n-QUUeFvLJD3XroxfAmB-28" value="&lt;div style=&quot;background-color:#1e1e1e;color:#dcdcdc&quot;&gt;&lt;pre style=&quot;font-family:&#39;JetBrains Mono&#39;,monospace;font-size:12.0pt;&quot;&gt;&lt;span style=&quot;color:#9cdcfe;&quot;&gt;formula&lt;/span&gt;.&lt;span style=&quot;color:#dcdca9;&quot;&gt;Contains&lt;/span&gt;(&lt;span style=&quot;color:#d69d85;&quot;&gt;&quot;(0)&quot;&lt;/span&gt;) || &lt;span style=&quot;color:#9cdcfe;&quot;&gt;formula&lt;/span&gt;.&lt;span style=&quot;color:#dcdca9;&quot;&gt;Contains&lt;/span&gt;(&lt;span style=&quot;color:#d69d85;&quot;&gt;&quot;(1)&quot;&lt;/span&gt;)&lt;/pre&gt;&lt;/div&gt;" style="strokeWidth=2;html=1;shape=mxgraph.flowchart.decision;whiteSpace=wrap;" vertex="1" parent="1">
          <mxGeometry x="-668.75" y="120" width="827.5" height="100" as="geometry" />
        </mxCell>
        <mxCell id="n-QUUeFvLJD3XroxfAmB-33" value="end" style="strokeWidth=2;html=1;shape=mxgraph.flowchart.terminator;whiteSpace=wrap;" vertex="1" parent="1">
          <mxGeometry x="-750" y="270" width="120" height="60" as="geometry" />
        </mxCell>
        <mxCell id="n-QUUeFvLJD3XroxfAmB-36" style="edgeStyle=orthogonalEdgeStyle;rounded=0;orthogonalLoop=1;jettySize=auto;html=1;exitX=0;exitY=0.5;exitDx=0;exitDy=0;exitPerimeter=0;entryX=0.5;entryY=0;entryDx=0;entryDy=0;entryPerimeter=0;" edge="1" parent="1" source="n-QUUeFvLJD3XroxfAmB-28" target="n-QUUeFvLJD3XroxfAmB-33">
          <mxGeometry relative="1" as="geometry" />
        </mxCell>
        <mxCell id="n-QUUeFvLJD3XroxfAmB-37" value="yes" style="edgeLabel;html=1;align=center;verticalAlign=middle;resizable=0;points=[];" vertex="1" connectable="0" parent="n-QUUeFvLJD3XroxfAmB-36">
          <mxGeometry x="-0.0047" relative="1" as="geometry">
            <mxPoint as="offset" />
          </mxGeometry>
        </mxCell>
        <mxCell id="n-QUUeFvLJD3XroxfAmB-43" value="&lt;div style=&quot;background-color:#1e1e1e;color:#dcdcdc&quot;&gt;&lt;pre style=&quot;font-family:&#39;JetBrains Mono&#39;,monospace;font-size:12.0pt;&quot;&gt;&lt;span style=&quot;color:#9cdcfe;&quot;&gt;parsedFormula &lt;/span&gt;= &lt;span style=&quot;color:#4dc9b0;&quot;&gt;FormulaParser&lt;/span&gt;.&lt;span style=&quot;color:#dcdca9;&quot;&gt;Parse&lt;/span&gt;(&lt;span style=&quot;color:#9cdcfe;&quot;&gt;formula&lt;/span&gt;);&lt;/pre&gt;&lt;/div&gt;" style="shape=process;whiteSpace=wrap;html=1;backgroundOutline=1;" vertex="1" parent="1">
          <mxGeometry x="-541.25" y="340" width="572.5" height="70" as="geometry" />
        </mxCell>
        <mxCell id="n-QUUeFvLJD3XroxfAmB-50" style="edgeStyle=orthogonalEdgeStyle;rounded=0;orthogonalLoop=1;jettySize=auto;html=1;exitX=1;exitY=0.5;exitDx=0;exitDy=0;exitPerimeter=0;" edge="1" parent="1" source="n-QUUeFvLJD3XroxfAmB-44" target="n-QUUeFvLJD3XroxfAmB-49">
          <mxGeometry relative="1" as="geometry" />
        </mxCell>
        <mxCell id="n-QUUeFvLJD3XroxfAmB-51" value="yes" style="edgeLabel;html=1;align=center;verticalAlign=middle;resizable=0;points=[];" vertex="1" connectable="0" parent="n-QUUeFvLJD3XroxfAmB-50">
          <mxGeometry x="0.2364" y="-2" relative="1" as="geometry">
            <mxPoint x="-1" as="offset" />
          </mxGeometry>
        </mxCell>
        <mxCell id="n-QUUeFvLJD3XroxfAmB-44" value="Exception?" style="strokeWidth=2;html=1;shape=mxgraph.flowchart.decision;whiteSpace=wrap;" vertex="1" parent="1">
          <mxGeometry x="-387.5" y="480" width="265" height="100" as="geometry" />
        </mxCell>
        <mxCell id="n-QUUeFvLJD3XroxfAmB-45" style="edgeStyle=orthogonalEdgeStyle;rounded=0;orthogonalLoop=1;jettySize=auto;html=1;exitX=0.5;exitY=1;exitDx=0;exitDy=0;entryX=0.5;entryY=0;entryDx=0;entryDy=0;entryPerimeter=0;" edge="1" parent="1" source="n-QUUeFvLJD3XroxfAmB-43" target="n-QUUeFvLJD3XroxfAmB-44">
          <mxGeometry relative="1" as="geometry" />
        </mxCell>
        <mxCell id="n-QUUeFvLJD3XroxfAmB-49" value="end" style="strokeWidth=2;html=1;shape=mxgraph.flowchart.terminator;whiteSpace=wrap;" vertex="1" parent="1">
          <mxGeometry x="-120" y="660" width="120" height="60" as="geometry" />
        </mxCell>
        <mxCell id="n-QUUeFvLJD3XroxfAmB-53" style="edgeStyle=orthogonalEdgeStyle;rounded=0;orthogonalLoop=1;jettySize=auto;html=1;exitX=0.5;exitY=1;exitDx=0;exitDy=0;entryX=0.5;entryY=0;entryDx=0;entryDy=0;entryPerimeter=0;" edge="1" parent="1" source="n-QUUeFvLJD3XroxfAmB-27" target="n-QUUeFvLJD3XroxfAmB-28">
          <mxGeometry relative="1" as="geometry" />
        </mxCell>
        <mxCell id="n-QUUeFvLJD3XroxfAmB-59" style="edgeStyle=orthogonalEdgeStyle;rounded=0;orthogonalLoop=1;jettySize=auto;html=1;exitX=0.5;exitY=1;exitDx=0;exitDy=0;exitPerimeter=0;entryX=0.5;entryY=0;entryDx=0;entryDy=0;" edge="1" parent="1" source="n-QUUeFvLJD3XroxfAmB-55" target="n-QUUeFvLJD3XroxfAmB-58">
          <mxGeometry relative="1" as="geometry" />
        </mxCell>
        <mxCell id="n-QUUeFvLJD3XroxfAmB-60" value="yes" style="edgeLabel;html=1;align=center;verticalAlign=middle;resizable=0;points=[];" vertex="1" connectable="0" parent="n-QUUeFvLJD3XroxfAmB-59">
          <mxGeometry x="-0.2833" y="-1" relative="1" as="geometry">
            <mxPoint as="offset" />
          </mxGeometry>
        </mxCell>
        <mxCell id="n-QUUeFvLJD3XroxfAmB-55" value="&lt;div style=&quot;background-color:#1e1e1e;color:#dcdcdc&quot;&gt;&lt;pre style=&quot;font-family:&#39;JetBrains Mono&#39;,monospace;font-size:12.0pt;&quot;&gt;parsedFormula.ToString() == formula&lt;/pre&gt;&lt;/div&gt;" style="strokeWidth=2;html=1;shape=mxgraph.flowchart.decision;whiteSpace=wrap;" vertex="1" parent="1">
          <mxGeometry x="-790" y="640" width="520" height="100" as="geometry" />
        </mxCell>
        <mxCell id="n-QUUeFvLJD3XroxfAmB-56" style="edgeStyle=orthogonalEdgeStyle;rounded=0;orthogonalLoop=1;jettySize=auto;html=1;exitX=0;exitY=0.5;exitDx=0;exitDy=0;exitPerimeter=0;entryX=0.5;entryY=0;entryDx=0;entryDy=0;entryPerimeter=0;" edge="1" parent="1" source="n-QUUeFvLJD3XroxfAmB-44" target="n-QUUeFvLJD3XroxfAmB-55">
          <mxGeometry relative="1" as="geometry" />
        </mxCell>
        <mxCell id="n-QUUeFvLJD3XroxfAmB-57" value="no" style="edgeLabel;html=1;align=center;verticalAlign=middle;resizable=0;points=[];" vertex="1" connectable="0" parent="n-QUUeFvLJD3XroxfAmB-56">
          <mxGeometry x="0.4222" relative="1" as="geometry">
            <mxPoint as="offset" />
          </mxGeometry>
        </mxCell>
        <mxCell id="n-QUUeFvLJD3XroxfAmB-58" value="&lt;div style=&quot;background-color: rgb(30, 30, 30); color: rgb(220, 220, 220);&quot;&gt;&lt;pre style=&quot;font-family:&#39;JetBrains Mono&#39;,monospace;font-size:12.0pt;&quot;&gt;&lt;pre style=&quot;font-family:&#39;JetBrains Mono&#39;,monospace;font-size:12.0pt;&quot;&gt;&lt;pre style=&quot;font-family:&#39;JetBrains Mono&#39;,monospace;font-size:12.0pt;&quot;&gt;&lt;pre style=&quot;font-family:&#39;JetBrains Mono&#39;,monospace;font-size:12.0pt;&quot;&gt;&lt;pre style=&quot;font-family:&#39;JetBrains Mono&#39;,monospace;font-size:12.0pt;&quot;&gt;&lt;pre style=&quot;font-family:&#39;JetBrains Mono&#39;,monospace;font-size:12.0pt;&quot;&gt;&lt;div&gt;&lt;pre style=&quot;font-family:&#39;JetBrains Mono&#39;,monospace;font-size:12.0pt;&quot;&gt;&lt;span style=&quot;color:#569cd6;&quot;&gt;bool &lt;/span&gt;&lt;span style=&quot;color:#9cdcfe;&quot;&gt;success &lt;/span&gt;= &lt;span style=&quot;color:#569cd6;&quot;&gt;true&lt;/span&gt;;&lt;/pre&gt;&lt;/div&gt;&lt;/pre&gt;&lt;/pre&gt;&lt;/pre&gt;&lt;/pre&gt;&lt;/pre&gt;&lt;/pre&gt;&lt;/div&gt;" style="rounded=1;whiteSpace=wrap;html=1;absoluteArcSize=1;arcSize=14;strokeWidth=2;" vertex="1" parent="1">
          <mxGeometry x="-640" y="800" width="220" height="50" as="geometry" />
        </mxCell>
        <mxCell id="n-QUUeFvLJD3XroxfAmB-61" style="edgeStyle=orthogonalEdgeStyle;rounded=0;orthogonalLoop=1;jettySize=auto;html=1;exitX=0.5;exitY=1;exitDx=0;exitDy=0;entryX=0.5;entryY=0;entryDx=0;entryDy=0;entryPerimeter=0;" edge="1" parent="1" source="n-QUUeFvLJD3XroxfAmB-58" target="9MdFgHSnbLBtPDZreut7-15">
          <mxGeometry relative="1" as="geometry" />
        </mxCell>
        <mxCell id="n-QUUeFvLJD3XroxfAmB-62" style="edgeStyle=orthogonalEdgeStyle;rounded=0;orthogonalLoop=1;jettySize=auto;html=1;exitX=1;exitY=0.5;exitDx=0;exitDy=0;exitPerimeter=0;entryX=1;entryY=0.5;entryDx=0;entryDy=0;entryPerimeter=0;" edge="1" parent="1" source="n-QUUeFvLJD3XroxfAmB-55" target="9MdFgHSnbLBtPDZreut7-15">
          <mxGeometry relative="1" as="geometry" />
        </mxCell>
        <mxCell id="n-QUUeFvLJD3XroxfAmB-63" value="no" style="edgeLabel;html=1;align=center;verticalAlign=middle;resizable=0;points=[];" vertex="1" connectable="0" parent="n-QUUeFvLJD3XroxfAmB-62">
          <mxGeometry x="-0.474" y="2" relative="1" as="geometry">
            <mxPoint x="1" as="offset" />
          </mxGeometry>
        </mxCell>
      </root>
    </mxGraphModel>
  </diagram>
</mxfile>
